<svg width="28" height="24" viewBox="0 0 28 24" fill="none" xmlns="http://www.w3.org/2000/svg">
<path d="M19.7579 0C17.4502 0 15.2352 1.0594 13.7895 2.73352C12.3438 1.0594 10.1289 0 7.8211 0C3.73605 0 0.526367 3.16512 0.526367 7.19346C0.526367 12.1373 5.03584 16.1657 11.8664 22.2866L13.7895 24L15.7127 22.2736C22.5432 16.1657 27.0527 12.1373 27.0527 7.19346C27.0527 3.16512 23.843 0 19.7579 0ZM13.9222 20.3379L13.7895 20.4687L13.6569 20.3379C7.34363 14.7008 3.179 10.9733 3.179 7.19346C3.179 4.57766 5.16847 2.6158 7.8211 2.6158C9.86363 2.6158 11.8531 3.91063 12.5561 5.70245H15.0363C15.7259 3.91063 17.7154 2.6158 19.7579 2.6158C22.4106 2.6158 24.4001 4.57766 24.4001 7.19346C24.4001 10.9733 20.2354 14.7008 13.9222 20.3379Z" fill="#FF4949"/>
</svg>
