<svg width="28" height="24" viewBox="0 0 28 24" fill="none" xmlns="http://www.w3.org/2000/svg">
<path d="M19.7579 0C17.4502 0 15.2352 1.0594 13.7895 2.73352C12.3438 1.0594 10.1289 0 7.8211 0C3.73605 0 0.526367 3.16512 0.526367 7.19346C0.526367 12.1373 5.03584 16.1657 11.8664 22.2866L13.7895 24L15.7127 22.2736C22.5432 16.1657 27.0527 12.1373 27.0527 7.19346C27.0527 3.16512 23.843 0 19.7579 0ZM13.9222 20.3379L13.7895 20.4687L13.6569 20.3379C7.34363 14.7008 11.8664 24.1177 11.8664 20.3379C11.8664 17.7221 9.21374 19 11.8664 19C13.9089 19 15.023 29.6354 15.7127 15L10.3388 19.4195C11.0285 17.6277 10.5135 19.4195 12.5561 19.4195C17 19 15.0363 16.3842 15.0363 19C15.0363 22.7798 13.9222 20.3379 13.9222 20.3379Z" fill="#FF4949"/>
</svg>
